<?xml version="1.0" encoding="iso-8859-1"?>
<!-- Generator: Adobe Illustrator 16.0.0, SVG Export Plug-In . SVG Version: 6.00 Build 0)  -->
<!DOCTYPE svg PUBLIC "-//W3C//DTD SVG 1.1//EN" "http://www.w3.org/Graphics/SVG/1.1/DTD/svg11.dtd">
<svg version="1.1" id="Capa_1" xmlns="http://www.w3.org/2000/svg" xmlns:xlink="http://www.w3.org/1999/xlink" x="0px" y="0px"
	 width="275.176px" height="275.176px" viewBox="0 0 275.176 275.176" style="enable-background:new 0 0 275.176 275.176;"
	 xml:space="preserve">
<g>
	<path d="M266.81,133.973c-1.19-38.825-32.568-67.016-33.745-68.046l-30.099-30.201c-0.66-0.659-1.547-1.03-2.478-1.03h-0.003
		c-0.935,0-1.824,0.368-2.478,1.026l-9.104,9.098l-10.328-10.326l9.1-9.101c1.369-1.371,1.369-3.585,0-4.956l-19.407-19.41
		C167.609,0.368,166.722,0,165.792,0s-1.824,0.368-2.478,1.027l-47.542,47.542c-1.369,1.371-1.369,3.587,0,4.956l19.411,19.411
		c0.659,0.659,1.549,1.026,2.478,1.026s1.822-0.368,2.478-1.026l9.118-9.119l10.332,10.328l-7.471,7.467
		c-1.369,1.371-1.369,3.584,0,4.955l8.586,8.584L11.618,244.233c-0.519,0.52-0.789,1.211-0.859,1.937
		c-4.173,7.536-2.892,17.118,3.28,23.284c3.692,3.689,8.6,5.723,13.82,5.723c3.256,0,6.42-0.801,9.248-2.32
		c0.813-0.068,1.588-0.421,2.177-1.014l2.101-2.128c0.082-0.068,0.166-0.137,0.247-0.219c0.034-0.028,0.066-0.062,0.098-0.089
		c0,0,84.962-85.164,146.401-146.813l16.844,16.849c33.373,33.369,28.131,53.122,28.018,53.52c-0.489,1.529,0.123,3.196,1.492,4.045
		c0.571,0.355,1.211,0.523,1.845,0.523c0.903,0,1.803-0.353,2.478-1.026C258.067,177.237,267.485,156.202,266.81,133.973z
		 M137.657,65.502l-14.456-14.455l42.59-42.583l14.452,14.455L137.657,65.502z M36.788,264.427c0,0-0.003,0-0.003,0.003
		c-0.041,0.041-0.08,0.075-0.115,0.109l-1.203,1.201c-0.251,0.093-0.493,0.216-0.722,0.366c-4.81,3.183-11.641,2.499-15.754-1.615
		c-4.175-4.168-4.861-10.779-1.631-15.711c0.154-0.236,0.281-0.489,0.368-0.749l146.273-146.271l17.525,17.521
		C120.793,180.218,38.302,262.911,36.788,264.427z M154.218,58.868l19.403-19.416l10.324,10.319l-9.653,9.661l-9.753,9.753
		L154.218,58.868z M240.097,184.803c-1.263-10.197-7.382-27.541-30.167-50.326l-50.381-50.388l7.454-7.453
		c0.007-0.004,0.014-0.007,0.021-0.011l9.633-9.64l23.829-23.823l27.78,27.867c0.302,0.271,30.444,27.333,31.543,63.161
		C260.346,151.882,253.724,168.876,240.097,184.803z"/>
</g>
<g>
</g>
<g>
</g>
<g>
</g>
<g>
</g>
<g>
</g>
<g>
</g>
<g>
</g>
<g>
</g>
<g>
</g>
<g>
</g>
<g>
</g>
<g>
</g>
<g>
</g>
<g>
</g>
<g>
</g>
</svg>
